DBRep_DrawableShape

CASCADE Topology V3, (c) Open Cascade
Locations 0
Curve2ds 169
1 0 0 0 -1 
1 45 -2.9999999999999982 0 -1 
1 49.999999999999993 0 0 -1 
1 0 0 0 -1 
1 1.4210854715202004e-14 49.999999999999986 -0.86602540378443871 -0.49999999999999994 
1 0 0 1 0 
1 1.4210854715202004e-14 49.999999999999986 -0.86602540378443871 -0.49999999999999994 
1 0 -1.4000000000000004 1 0 
8 -47.500000000000007 -2.5
1 1.4210854715202004e-14 2.4999999999999858 0 -1 
8 -47.500000000000007 -2.5
1 -2.5 -2.9999999999999982 -1 0 
8 -47.500000000000007 -2.5
1 1.4210854715202004e-14 2.4999999999999858 0 -1 
8 -47.500000000000007 -2.5
1 -2.5 -4.3999999999999986 -1 0 
1 4.7123889803846897 0 0 -1 
1 0 0 0 -1 
1 -43.301270189221917 24.999999999999993 -1.4210854715202004e-16 -1 
1 0 0 1 0 
8 1.4999999999999982 2.8999999999999986
1 25.000000000000007 1.4999999999999982 0 -1 
8 1.4999999999999982 2.8999999999999986
1 101.69872981077806 -1.5 0 -1 
1 -43.301270189221917 24.999999999999993 -1.4210854715202004e-16 -1 
1 0 -1.4000000000000004 1 0 
2 -4.9999999999999858 4.9999999999999858 0 -1 -1 -0 5
1 0 -2.9999999999999982 1 0 
8 -67.5 -29.198729810778076
1 -72.5 -1.4210854715202004e-14 -1 0 
8 -67.5 -29.198729810778076
1 72.5 -2.9999999999999982 -1 0 
2 -4.9999999999999858 4.9999999999999858 0 -1 -1 -0 5
1 0 -4.3999999999999986 1 0 
8 -67.5 -29.198729810778076
1 -72.5 -1.4210854715202004e-14 -1 0 
8 -67.5 -29.198729810778076
1 72.5 -4.3999999999999986 -1 0 
1 6.2831853071795862 0 0 -1 
1 140 0 0 -1 
1 -43.301270189221917 25.000000000000014 -1.4210854715202004e-16 -1 
1 0 0 1 0 
1 0 0 0 -1 
1 50 0 0 -1 
1 -43.301270189221917 25.000000000000014 -1.4210854715202004e-16 -1 
1 0 -0.80000000000000071 1 0 
8 1.4999999999999982 2.2999999999999989
1 48.205080756887725 1.4999999999999982 0 -1 
8 1.4999999999999982 2.2999999999999989
1 101.69872981077806 -1.5 0 -1 
8 -67.5 -29.198729810778076
1 -72.5 -23.20508075688771 -1 0 
8 -67.5 -29.198729810778076
1 72.5 -2.9999999999999982 -1 0 
2 -4.9999999999999858 -28.20508075688771 0 -1 -1 -0 5
1 6.2831853071795862 -2.9999999999999982 -1 0 
8 -55.897459621556152 -34.102540378443848
1 1.4210854715202004e-14 -84.102540378443848 0 -1 
8 -55.897459621556152 -34.102540378443848
1 84.102540378443848 -2.9999999999999982 -1 0 
1 -43.301270189221924 -24.999999999999986 0.8660254037844386 -0.50000000000000022 
1 0 0 1 0 
1 50.000000000000014 0 0 -1 
1 0 0 0 -1 
1 118.20508075688772 -2.9999999999999982 0 -1 
1 -43.301270189221924 -24.999999999999986 0.8660254037844386 -0.50000000000000022 
1 0 -0.80000000000000071 1 0 
8 -67.5 -29.198729810778076
1 -72.5 -23.20508075688771 -1 0 
8 -67.5 -29.198729810778076
1 72.5 -3.7999999999999989 -1 0 
2 -4.9999999999999858 -28.20508075688771 0 -1 -1 -0 5
1 6.2831853071795862 -3.7999999999999989 -1 0 
8 -55.897459621556152 -34.102540378443848
1 1.4210854715202004e-14 -84.102540378443848 0 -1 
8 -55.897459621556152 -34.102540378443848
1 84.102540378443848 -3.7999999999999989 -1 0 
1 3.1415926535897931 0 0 -1 
1 140 0 0 -1 
1 1.5707963267948966 0 0 -1 
1 140 0 0 -1 
1 50.000000000000036 0 0 -1 
1 0 0 0 -1 
1 50 0 0 -1 
1 3.5527136788005009e-15 50 -0.86602540378443871 -0.49999999999999994 
1 0 0 1 0 
1 3.5527136788005009e-15 50 -0.86602540378443871 -0.49999999999999994 
1 0 -1 1 0 
1 0 0 0 -1 
1 -43.301270189221924 25 -1.4210854715202004e-16 -1 
1 -43.301270189221924 25 -1.4210854715202004e-16 -1 
1 0 0 0 -1 
1 50 0 0 -1 
1 -43.301270189221938 -24.999999999999993 0.8660254037844386 -0.50000000000000022 
1 0 0 1 0 
1 -43.301270189221938 -24.999999999999993 0.8660254037844386 -0.50000000000000022 
1 0 -1 1 0 
1 49.999999999999986 0 0 -1 
1 -3.5527136788005009e-15 -50 0.86602540378443882 0.49999999999999978 
1 0 0 1 0 
1 -3.5527136788005009e-15 -50 0.86602540378443882 0.49999999999999978 
1 0 -1 1 0 
1 0 0 0 -1 
1 43.301270189221924 -25.000000000000021 7.1054273576010042e-16 1 
1 43.301270189221924 -25.000000000000021 7.1054273576010042e-16 1 
1 43.301270189221952 24.999999999999964 -0.86602540378443849 0.50000000000000033 
1 0 0 1 0 
1 43.301270189221952 24.999999999999964 -0.86602540378443849 0.50000000000000033 
1 0 -1 1 0 
1 50.000000000000036 0 0 -1 
1 0 0 0 -1 
1 49.999999999999993 0 0 -1 
1 0 0 0 -1 
1 0 49.999999999999986 -0.86602540378443871 -0.49999999999999994 
1 0 0 1 0 
1 0 49.999999999999986 -0.86602540378443871 -0.49999999999999994 
1 0 -1.5999999999999996 1 0 
1 0 0 0 -1 
1 50 0 0 -1 
1 43.301270189221952 24.999999999999957 -0.86602540378443849 0.50000000000000033 
1 0 0 1 0 
1 43.301270189221952 24.999999999999957 -0.86602540378443849 0.50000000000000033 
1 0 -1.5999999999999996 1 0 
1 -43.301270189221924 24.999999999999993 -1.4210854715202004e-16 -1 
1 0 0 1 0 
8 1.4999999999999982 3.0999999999999983
1 25.000000000000007 1.4999999999999982 0 -1 
8 1.4999999999999982 3.0999999999999983
1 1.6987298107780759 -1.5 0 -1 
1 -43.301270189221924 24.999999999999993 -1.4210854715202004e-16 -1 
1 0 -1.5999999999999996 1 0 
1 43.301270189221917 -25.000000000000043 7.1054273576010042e-16 1 
1 0 0 1 0 
8 -65.801270189221952 20.801270189221935
1 -22.500000000000004 -1.4210854715202004e-14 -1 0 
8 -65.801270189221952 20.801270189221935
1 22.5 -2.9999999999999982 -1 0 
1 43.301270189221917 -25.000000000000043 7.1054273576010042e-16 1 
1 0 -1.5999999999999996 1 0 
8 -65.801270189221952 20.801270189221935
1 -22.500000000000004 -1.4210854715202004e-14 -1 0 
8 -65.801270189221952 20.801270189221935
1 22.5 -4.5999999999999979 -1 0 
8 -3.0999999999999983 -1.4999999999999982
1 25.000000000000028 1.4999999999999982 0 1 
8 -3.0999999999999983 -1.4999999999999982
1 88.301270189221938 -1.5 0 1 
1 -43.301270189221924 25.000000000000014 -1.4210854715202004e-16 -1 
1 0 0 1 0 
1 0 0 0 -1 
1 50 0 0 -1 
1 -43.301270189221924 25.000000000000014 -1.4210854715202004e-16 -1 
1 0 -0.40000000000000036 1 0 
8 1.4999999999999982 1.8999999999999986
1 48.205080756887725 1.4999999999999982 0 -1 
8 1.4999999999999982 1.8999999999999986
1 1.6987298107780759 -1.5 0 -1 
8 -65.801270189221952 20.801270189221935
1 -22.500000000000004 -23.20508075688771 -1 0 
8 -65.801270189221952 20.801270189221935
1 22.5 -2.9999999999999982 -1 0 
1 43.301270189221917 -25.000000000000014 7.1054273576010042e-16 1 
1 0 0 1 0 
1 -7.1054273576010019e-15 -49.999999999999986 0.86602540378443882 0.49999999999999978 
1 0 0 1 0 
1 -43.301270189221938 -24.999999999999986 0.8660254037844386 -0.50000000000000022 
1 0 0 1 0 
1 0 0 0 -1 
1 50 0 0 -1 
1 -43.301270189221938 -24.999999999999986 0.8660254037844386 -0.50000000000000022 
1 0 -0.40000000000000036 1 0 
8 -65.801270189221952 20.801270189221935
1 -22.500000000000004 -23.20508075688771 -1 0 
8 -65.801270189221952 20.801270189221935
1 22.5 -3.3999999999999986 -1 0 
1 43.301270189221917 -25.000000000000014 7.1054273576010042e-16 1 
1 0 -0.40000000000000036 1 0 
1 -7.1054273576010019e-15 -49.999999999999986 0.86602540378443882 0.49999999999999978 
1 0 -0.40000000000000036 1 0 
8 -1.8999999999999986 -1.4999999999999982
1 1.7949192431123038 1.4999999999999982 0 1 
8 -1.8999999999999986 -1.4999999999999982
1 88.301270189221924 -1.5 0 1 
1 49.999999999999979 0 0 -1 
1 0 0 0 -1 
1 0 0 0 -1 
1 50.000000000000036 0 0 -1 
1 131.60254037844385 -2.9999999999999982 0 -1 
1 43.301270189221924 24.999999999999968 -0.86602540378443849 0.50000000000000033 
1 0 0 1 0 
1 43.301270189221924 24.999999999999968 -0.86602540378443849 0.50000000000000033 
1 0 -1.8000000000000007 1 0 
1 49.999999999999979 0 0 -1 
1 43.301270189221889 -25.000000000000021 7.1054273576010042e-16 1 
1 43.301270189221889 -25.000000000000021 7.1054273576010042e-16 1 
8 -90.801270189221924 9.198729810778083
1 -2.8421709430404007e-14 -40.801270189221924 0 -1 
8 -90.801270189221924 9.198729810778083
1 40.801270189221931 -4.7999999999999972 -1 0 
1 0 0 0 -1 
1 31.602540378443862 -2.9999999999999982 0 -1 
8 -90.801270189221924 9.198729810778083
1 -2.8421709430404007e-14 -40.801270189221924 0 -1 
8 -90.801270189221924 9.198729810778083
1 40.801270189221931 -2.9999999999999964 -1 0 
1 -2.8421709430404007e-14 -50 0.86602540378443882 0.49999999999999978 
1 0 0 1 0 
1 -2.8421709430404007e-14 -50 0.86602540378443882 0.49999999999999978 
1 0 -1.8000000000000007 1 0 
Curves 90
1 75 -25 12.499999999999998 0 0 1 
1 31.698729810778069 -49.999999999999993 12.499999999999998 0 0 1 
1 75 -25 12.499999999999998 -0.86602540378443871 -0.49999999999999994 0 
1 75 -25 13.899999999999999 -0.86602540378443871 -0.49999999999999994 0 
1 75 -72.5 12.499999999999998 0 -1 0 
1 75 -72.5 13.899999999999999 0 -1 0 
1 75 -70 9.5 0 0 1 
1 31.698729810778069 -49.999999999999993 12.499999999999998 -1.4210854715202004e-16 -1 0 
1 31.698729810778062 -75 11 -0 0 1 
1 31.698729810778069 -49.999999999999993 13.899999999999999 -1.4210854715202004e-16 -1 0 
2 70 -70 12.499999999999998 -0 -0 -1 0 -1 0 -1 0 0 5
1 2.4999999999999929 -75 12.499999999999998 -1 0 0 
2 70 -70 13.899999999999999 -0 -0 -1 0 -1 0 -1 0 0 5
1 2.4999999999999929 -75 13.899999999999999 -1 0 0 
1 70 -75 9.5 0 0 1 
1 31.698729810778069 123.20508075688772 12.499999999999998 -1.4210854715202004e-16 -1 0 
1 31.698729810778062 73.205080756887725 12.499999999999998 0 0 1 
1 31.698729810778069 123.20508075688772 13.299999999999999 -1.4210854715202004e-16 -1 0 
1 31.698729810778062 75 11 -0 0 1 
1 2.4999999999999929 75 12.499999999999998 -1 0 0 
2 70 70 12.499999999999998 -0 -0 -1 0 -1 0 -1 0 0 5
1 75 14.102540378443855 12.499999999999998 0 -1 0 
1 31.698729810778062 73.205080756887725 12.499999999999998 0.8660254037844386 -0.50000000000000022 0 
1 75 48.205080756887725 12.499999999999998 0 0 1 
1 31.698729810778062 73.205080756887725 13.299999999999999 0.8660254037844386 -0.50000000000000022 0 
1 2.4999999999999929 75 13.299999999999999 -1 0 0 
2 70 70 13.299999999999999 -0 -0 -1 0 -1 0 -1 0 0 5
1 75 14.102540378443855 13.299999999999999 0 -1 0 
1 70 75 9.5 0 0 1 
1 75 70 9.5 0 0 1 
1 25.000000000000004 61.602540378443862 12.499999999999998 0 0 1 
1 -18.301270189221928 36.602540378443862 12.499999999999998 0 0 1 
1 25.000000000000004 61.602540378443862 12.499999999999998 -0.86602540378443871 -0.49999999999999994 0 
1 25.000000000000004 61.602540378443862 13.499999999999998 -0.86602540378443871 -0.49999999999999994 0 
1 -18.301270189221935 -13.397459621556134 12.499999999999998 0 0 1 
1 -18.301270189221928 36.602540378443862 12.499999999999998 -1.4210854715202004e-16 -1 0 
1 -18.301270189221928 36.602540378443862 13.499999999999998 -1.4210854715202004e-16 -1 0 
1 24.999999999999996 -38.397459621556138 12.499999999999998 0 0 1 
1 -18.301270189221935 -13.397459621556134 12.499999999999998 0.8660254037844386 -0.50000000000000022 0 
1 -18.301270189221935 -13.397459621556134 13.499999999999998 0.8660254037844386 -0.50000000000000022 0 
1 68.301270189221924 -13.397459621556163 12.499999999999998 0 0 1 
1 24.999999999999996 -38.397459621556138 12.499999999999998 0.86602540378443882 0.49999999999999978 0 
1 24.999999999999996 -38.397459621556138 13.499999999999998 0.86602540378443882 0.49999999999999978 0 
1 68.301270189221952 36.602540378443827 12.499999999999998 0 0 1 
1 68.301270189221924 -13.397459621556163 12.499999999999998 7.1054273576010042e-16 1 0 
1 68.301270189221924 -13.397459621556163 13.499999999999998 7.1054273576010042e-16 1 0 
1 68.301270189221952 36.602540378443827 12.499999999999998 -0.86602540378443849 0.50000000000000033 0 
1 68.301270189221952 36.602540378443827 13.499999999999998 -0.86602540378443849 0.50000000000000033 0 
1 -24.999999999999996 -25 12.499999999999998 0 0 1 
1 -68.301270189221924 -49.999999999999993 12.499999999999998 0 0 1 
1 -24.999999999999996 -25 12.499999999999998 -0.86602540378443871 -0.49999999999999994 0 
1 -24.999999999999996 -25 14.099999999999998 -0.86602540378443871 -0.49999999999999994 0 
1 18.301270189221956 -50.000000000000028 12.499999999999998 0 0 1 
1 18.301270189221956 -50.000000000000028 12.499999999999998 -0.86602540378443849 0.50000000000000033 0 
1 18.301270189221956 -50.000000000000028 14.099999999999998 -0.86602540378443849 0.50000000000000033 0 
1 -68.301270189221924 -49.999999999999993 12.499999999999998 -1.4210854715202004e-16 -1 0 
1 -68.301270189221924 -75 11 -0 0 1 
1 -68.301270189221924 -49.999999999999993 14.099999999999998 -1.4210854715202004e-16 -1 0 
1 18.301270189221921 -100.00000000000003 12.499999999999998 7.1054273576010042e-16 1 0 
1 -47.5 -75 12.499999999999998 -1 0 0 
1 18.301270189221921 -100.00000000000003 14.099999999999998 7.1054273576010042e-16 1 0 
1 -47.5 -75 14.099999999999998 -1 0 0 
1 18.301270189221938 -75 11 0 0 -1 
1 -68.301270189221924 123.20508075688772 12.499999999999998 -1.4210854715202004e-16 -1 0 
1 -68.301270189221938 73.205080756887725 12.499999999999998 0 0 1 
1 -68.301270189221924 123.20508075688772 12.899999999999999 -1.4210854715202004e-16 -1 0 
1 -68.301270189221924 75 11 -0 0 1 
1 -47.5 75 12.499999999999998 -1 0 0 
1 18.301270189221921 73.205080756887696 12.499999999999998 7.1054273576010042e-16 1 0 
1 -25.000000000000004 48.205080756887725 12.499999999999998 0.86602540378443882 0.49999999999999978 0 
1 -68.301270189221938 73.205080756887725 12.499999999999998 0.8660254037844386 -0.50000000000000022 0 
1 -25.000000000000004 48.205080756887725 12.499999999999998 0 0 1 
1 -68.301270189221938 73.205080756887725 12.899999999999999 0.8660254037844386 -0.50000000000000022 0 
1 -47.5 75 12.899999999999999 -1 0 0 
1 18.301270189221921 73.205080756887696 12.899999999999999 7.1054273576010042e-16 1 0 
1 -25.000000000000004 48.205080756887725 12.899999999999999 0.86602540378443882 0.49999999999999978 0 
1 18.301270189221924 75 11 0 0 -1 
1 18.301270189221921 73.205080756887696 12.499999999999998 0 0 1 
1 -31.698729810778048 36.602540378443827 12.499999999999998 0 0 1 
1 -75 61.602540378443862 12.499999999999998 0 0 1 
1 -31.698729810778048 36.602540378443827 12.499999999999998 -0.86602540378443849 0.50000000000000033 0 
1 -31.698729810778048 36.602540378443827 14.299999999999999 -0.86602540378443849 0.50000000000000033 0 
1 -31.698729810778083 -13.397459621556163 12.499999999999998 0 0 1 
1 -31.698729810778083 -13.397459621556163 12.499999999999998 7.1054273576010042e-16 1 0 
1 -31.698729810778083 -13.397459621556163 14.299999999999999 7.1054273576010042e-16 1 0 
1 -75 -29.198729810778069 14.299999999999997 0 -1 0 
1 -75 -38.397459621556138 12.499999999999998 0 0 1 
1 -75 -29.198729810778069 12.499999999999996 0 -1 0 
1 -75 -38.397459621556138 12.499999999999998 0.86602540378443882 0.49999999999999978 0 
1 -75 -38.397459621556138 14.299999999999999 0.86602540378443882 0.49999999999999978 0 
Polygon3D 0
PolygonOnTriangulations 0
Surfaces 40
1 75 -25 12.499999999999998 0.49999999999999994 -0.86602540378443871 0 -0.86602540378443871 -0.49999999999999994 0 0 -0 -1 
1 75 -70 9.5 -1 0 0 0 1 0 0 0 -1 
1 31.698729810778069 -49.999999999999993 12.499999999999998 1 -1.4210854715202004e-16 0 -1.4210854715202004e-16 -1 0 0 -0 -1 
1 74.999999999999986 -74.999999999999986 12.499999999999998 0 0 1 1 0 -0 -0 1 0 
1 74.999999999999986 -74.999999999999986 13.899999999999999 0 0 1 1 0 -0 -0 1 0 
2 70 -70 9.5 -0 -0 -1 0 -1 0 -1 0 0 5
1 -70 -75 9.5 0 1 0 1 0 0 0 0 -1 
1 31.698729810778069 123.20508075688772 12.499999999999998 1 -1.4210854715202004e-16 0 -1.4210854715202004e-16 -1 0 0 -0 -1 
1 74.999999999999986 98.20508075688771 12.499999999999998 0 0 1 1 0 -0 -0 1 0 
1 31.698729810778062 73.205080756887725 12.499999999999998 0.50000000000000022 0.8660254037844386 -0 0.8660254037844386 -0.50000000000000022 0 0 -0 -1 
1 74.999999999999986 98.20508075688771 13.299999999999999 0 0 1 1 0 -0 -0 1 0 
1 -70 75 9.5 0 1 0 1 0 0 0 0 -1 
2 70 70 9.5 -0 -0 -1 0 -1 0 1 0 -0 5
1 75 48.205080756887725 12.499999999999998 -0.49999999999999978 0.86602540378443882 0 0.86602540378443882 0.49999999999999978 0 0 0 -1 
1 25.000000000000004 61.602540378443862 12.499999999999998 0.49999999999999994 -0.86602540378443871 0 -0.86602540378443871 -0.49999999999999994 0 0 -0 -1 
1 68.301270189221952 36.602540378443827 12.499999999999998 -0.50000000000000033 -0.86602540378443849 0 -0.86602540378443849 0.50000000000000033 0 -0 0 -1 
1 25 11.602540378443861 12.499999999999998 0 0 1 1 0 -0 -0 1 0 
1 25 11.602540378443861 13.499999999999998 0 0 1 1 0 -0 -0 1 0 
1 -18.301270189221928 36.602540378443862 12.499999999999998 1 -1.4210854715202004e-16 0 -1.4210854715202004e-16 -1 0 0 -0 -1 
1 -18.301270189221935 -13.397459621556134 12.499999999999998 0.50000000000000022 0.8660254037844386 -0 0.8660254037844386 -0.50000000000000022 0 0 -0 -1 
1 24.999999999999996 -38.397459621556138 12.499999999999998 -0.49999999999999978 0.86602540378443882 0 0.86602540378443882 0.49999999999999978 0 0 0 -1 
1 68.301270189221924 -13.397459621556163 12.499999999999998 -1 7.1054273576010042e-16 0 7.1054273576010042e-16 1 0 0 0 -1 
1 -24.999999999999996 -25 12.499999999999998 0.49999999999999994 -0.86602540378443871 0 -0.86602540378443871 -0.49999999999999994 0 0 -0 -1 
1 18.301270189221956 -50.000000000000028 12.499999999999998 -0.50000000000000033 -0.86602540378443849 0 -0.86602540378443849 0.50000000000000033 0 -0 0 -1 
1 -68.301270189221924 -49.999999999999993 12.499999999999998 1 -1.4210854715202004e-16 0 -1.4210854715202004e-16 -1 0 0 -0 -1 
1 -24.999999999999996 -74.999999999999986 12.499999999999998 0 0 1 1 0 -0 -0 1 0 
1 -24.999999999999996 -74.999999999999986 14.099999999999998 0 0 1 1 0 -0 -0 1 0 
1 18.301270189221921 -100.00000000000003 12.499999999999998 -1 7.1054273576010042e-16 0 7.1054273576010042e-16 1 0 0 0 -1 
1 -68.301270189221924 123.20508075688772 12.499999999999998 1 -1.4210854715202004e-16 0 -1.4210854715202004e-16 -1 0 0 -0 -1 
1 -24.999999999999996 98.20508075688771 12.499999999999998 0 0 1 1 0 -0 -0 1 0 
1 -68.301270189221938 73.205080756887725 12.499999999999998 0.50000000000000022 0.8660254037844386 -0 0.8660254037844386 -0.50000000000000022 0 0 -0 -1 
1 -24.999999999999996 98.20508075688771 12.899999999999999 0 0 1 1 0 -0 -0 1 0 
1 18.301270189221921 73.205080756887696 12.499999999999998 -1 7.1054273576010042e-16 0 7.1054273576010042e-16 1 0 0 0 -1 
1 -25.000000000000004 48.205080756887725 12.499999999999998 -0.49999999999999978 0.86602540378443882 0 0.86602540378443882 0.49999999999999978 0 0 0 -1 
1 -31.698729810778048 36.602540378443827 12.499999999999998 -0.50000000000000033 -0.86602540378443849 0 -0.86602540378443849 0.50000000000000033 0 -0 0 -1 
1 -75 -70 9.5 -1 0 0 0 1 0 0 0 -1 
1 -74.999999999999972 11.602540378443859 12.499999999999996 0 0 1 1 0 -0 -0 1 0 
1 -74.999999999999972 11.602540378443859 14.299999999999997 0 0 1 1 0 -0 -0 1 0 
1 -31.698729810778083 -13.397459621556163 12.499999999999998 -1 7.1054273576010042e-16 0 7.1054273576010042e-16 1 0 0 0 -1 
1 -75 -38.397459621556138 12.499999999999998 -0.49999999999999978 0.86602540378443882 0 0.86602540378443882 0.49999999999999978 0 0 0 -1 
Triangulations 0

TShapes 247
Ve
1.50000007105427e-07
75 -25 12.5
0 0

0101101
*
Ve
1.50000007105427e-07
75 -25 13.9
0 0

0101101
*
Ed
 1e-07 1 1 0
1  1 0 0 1.4
2  1 1 0 0 1.4
2  2 2 0 0 1.4
0

0101000
+247 0 -246 0 *
Ve
1e-07
31.6987298107781 -50 12.5
0 0

0101101
*
Ve
1e-07
31.6987298107781 -50 13.9
0 0

0101101
*
Ed
 1e-07 1 1 0
1  2 0 0 1.4
2  3 1 0 0 1.4
2  4 3 0 0 1.4
0

0101000
+244 0 -243 0 *
Ed
 1e-07 1 1 0
1  3 0 0 50
2  5 4 0 0 50
2  6 1 0 0 50
0

0101000
+247 0 -244 0 *
Ed
 1e-07 1 1 0
1  4 0 0 50
2  7 5 0 0 50
2  8 1 0 0 50
0

0101000
+246 0 -243 0 *
Wi

0101100
+245 0 -242 0 -241 0 +240 0 *
Fa
0  1e-07 1 0

0101000
+239 0 *
Ve
1.5e-07
75 -70 12.5
0 0

0101101
*
Ed
 1.5e-07 1 1 0
1  5 0 -47.5 -2.5
2  9 4 0 -47.5 -2.5
2  10 2 0 -47.5 -2.5
0

0101000
+247 0 -237 0 *
Ve
1.5e-07
75 -70 13.9
0 0

0101101
*
Ed
 1.5e-07 1 1 0
1  6 0 -47.5 -2.5
2  11 5 0 -47.5 -2.5
2  12 2 0 -47.5 -2.5
0

0101000
+246 0 -235 0 *
Ed
 1e-07 1 1 0
1  7 0 3 4.4
2  13 6 0 3 4.4
4 G1 6 0 2 0
2  14 2 0 3 4.4
0

0101000
+237 0 -235 0 *
Wi

0101100
+236 0 -245 0 -234 0 +233 0 *
Fa
0  1e-07 2 0

0101000
+232 0 *
Ve
1.50000003552714e-07
31.6987298107781 -75 12.5
0 0

0101101
*
Ed
 1e-07 1 1 0
1  8 0 0 25
2  15 4 0 0 25
2  16 3 0 0 25
0

0101000
+244 0 -230 0 *
Ve
1.50000003552714e-07
31.6987298107781 -75 13.9
0 0

0101101
*
Ed
 1.5e-07 1 1 0
1  9 0 1.5 2.9
2  17 3 0 1.5 2.9
2  18 7 0 1.5 2.9
0

0101000
+230 0 -228 0 *
Ed
 1e-07 1 1 0
1  10 0 0 25
2  19 5 0 0 25
2  20 3 0 0 25
0

0101000
+243 0 -228 0 *
Wi

0101100
-229 0 -227 0 +226 0 +242 0 *
Fa
0  1e-07 3 0

0101000
+225 0 *
Ve
1.5e-07
70 -75 12.5
0 0

0101101
*
Ed
 1e-07 1 1 0
1  11 0 4.71238898038469 6.28318530717959
2  21 4 0 4.71238898038469 6.28318530717959
2  22 6 0 4.71238898038469 6.28318530717959
0

0101000
+237 0 -223 0 *
Ed
 1.5e-07 1 1 0
1  12 0 -67.5 -29.1987298107781
2  23 4 0 -67.5 -29.1987298107781
2  24 7 0 -67.5 -29.1987298107781
0

0101000
+223 0 -230 0 *
Wi

0101100
-236 0 -222 0 -221 0 +229 0 +241 0 *
Fa
0  1e-07 4 0

0101000
+220 0 *
Ve
1.5e-07
70 -75 13.9
0 0

0101101
*
Ed
 1e-07 1 1 0
1  13 0 4.71238898038469 6.28318530717959
2  25 5 0 4.71238898038469 6.28318530717959
2  26 6 0 4.71238898038469 6.28318530717959
0

0101000
+235 0 -218 0 *
Ed
 1.5e-07 1 1 0
1  14 0 -67.5 -29.1987298107781
2  27 5 0 -67.5 -29.1987298107781
2  28 7 0 -67.5 -29.1987298107781
0

0101000
+218 0 -228 0 *
Wi

0101100
-234 0 -217 0 -216 0 +226 0 +240 0 *
Fa
0  1e-07 5 0

0101000
+215 0 *
Ed
 1e-07 1 1 0
1  15 0 3 4.4
2  29 6 0 3 4.4
4 G1 7 0 6 0
2  30 7 0 3 4.4
0

0101000
+223 0 -218 0 *
Wi

0101100
-222 0 -213 0 +217 0 +233 0 *
Fa
0  1e-07 6 0

0101000
+212 0 *
Wi

0101100
-213 0 -216 0 +227 0 +221 0 *
Fa
0  1e-07 7 0

0101000
+210 0 *
Sh

0101100
-238 0 -231 0 -224 0 -219 0 +214 0 +211 0 -209 0 *
So

0100000
+208 0 *
Ve
1.50000007105427e-07
31.6987298107781 75 12.5
0 0

0101101
*
Ve
1e-07
31.6987298107781 73.2050807568877 12.5
0 0

0101101
*
Ed
 1e-07 1 1 0
1  16 0 48.2050807568877 50
2  31 9 0 48.2050807568877 50
2  32 8 0 48.2050807568877 50
0

0101000
+206 0 -205 0 *
Ve
1e-07
31.6987298107781 73.2050807568877 13.3
0 0

0101101
*
Ed
 1e-07 1 1 0
1  17 0 0 0.8
2  33 10 0 0 0.8
2  34 8 0 0 0.8
0

0101000
+205 0 -203 0 *
Ve
1.50000007105427e-07
31.6987298107781 75 13.3
0 0

0101101
*
Ed
 1e-07 1 1 0
1  18 0 48.2050807568877 50
2  35 11 0 48.2050807568877 50
2  36 8 0 48.2050807568877 50
0

0101000
+201 0 -203 0 *
Ed
 1.5e-07 1 1 0
1  19 0 1.5 2.3
2  37 8 0 1.5 2.3
2  38 12 0 1.5 2.3
0

0101000
+206 0 -201 0 *
Wi

0101100
-204 0 -202 0 +200 0 +199 0 *
Fa
0  1e-07 8 0

0101000
+198 0 *
Ve
1.5e-07
70 75 12.5
0 0

0101101
*
Ed
 1.5e-07 1 1 0
1  20 0 -67.5 -29.1987298107781
2  39 9 0 -67.5 -29.1987298107781
2  40 12 0 -67.5 -29.1987298107781
0

0101000
+196 0 -206 0 *
Ve
1.5e-07
75 70 12.5
0 0

0101101
*
Ed
 1e-07 1 1 0
1  21 0 3.14159265358979 4.71238898038469
2  41 9 0 3.14159265358979 4.71238898038469
2  42 13 0 3.14159265358979 4.71238898038469
0

0101000
+196 0 -194 0 *
Ve
1.50000021316282e-07
75 48.2050807568877 12.5
0 0

0101101
*
Ed
 1.5e-07 1 1 0
1  22 0 -55.8974596215562 -34.1025403784438
2  43 9 0 -55.8974596215562 -34.1025403784438
2  44 2 0 -55.8974596215562 -34.1025403784438
0

0101000
+194 0 -192 0 *
Ed
 1e-07 1 1 0
1  23 0 0 50
2  45 9 0 0 50
2  46 10 0 0 50
0

0101000
+205 0 -192 0 *
Wi

0101100
+195 0 -193 0 -191 0 +190 0 +204 0 *
Fa
0  1e-07 9 0

0101000
+189 0 *
Ve
1.50000021316282e-07
75 48.2050807568877 13.3
0 0

0101101
*
Ed
 1e-07 1 1 0
1  24 0 0 0.8
2  47 10 0 0 0.8
2  48 14 0 0 0.8
2  49 2 0 0 0.8
0

0101000
+192 0 -187 0 *
Ed
 1e-07 1 1 0
1  25 0 0 50
2  50 11 0 0 50
2  51 10 0 0 50
0

0101000
+203 0 -187 0 *
Wi

0101100
+202 0 -186 0 -190 0 +185 0 *
Fa
0  1e-07 10 0

0101000
+184 0 *
Ve
1.5e-07
70 75 13.3
0 0

0101101
*
Ed
 1.5e-07 1 1 0
1  26 0 -67.5 -29.1987298107781
2  52 11 0 -67.5 -29.1987298107781
2  53 12 0 -67.5 -29.1987298107781
0

0101000
+182 0 -201 0 *
Ve
1.5e-07
75 70 13.3
0 0

0101101
*
Ed
 1e-07 1 1 0
1  27 0 3.14159265358979 4.71238898038469
2  54 11 0 3.14159265358979 4.71238898038469
2  55 13 0 3.14159265358979 4.71238898038469
0

0101000
+182 0 -180 0 *
Ed
 1.5e-07 1 1 0
1  28 0 -55.8974596215562 -34.1025403784438
2  56 11 0 -55.8974596215562 -34.1025403784438
2  57 2 0 -55.8974596215562 -34.1025403784438
0

0101000
+180 0 -187 0 *
Wi

0101100
+181 0 -179 0 -178 0 +185 0 +200 0 *
Fa
0  1e-07 11 0

0101000
+177 0 *
Ed
 1e-07 1 1 0
1  29 0 3 3.8
2  58 13 0 3 3.8
4 G1 13 0 12 0
2  59 12 0 3 3.8
0

0101000
+196 0 -182 0 *
Wi

0101100
-175 0 -181 0 +199 0 +195 0 *
Fa
0  1e-07 12 0

0101000
+174 0 *
Ed
 1e-07 1 1 0
1  30 0 3 3.8
2  60 13 0 3 3.8
4 G1 2 0 13 0
2  61 2 0 3 3.8
0

0101000
+194 0 -180 0 *
Wi

0101100
+193 0 -175 0 -179 0 +172 0 *
Fa
0  1e-07 13 0

0101000
+171 0 *
Wi

0101100
-172 0 -178 0 +186 0 +191 0 *
Fa
0  1e-07 2 0

0101000
+169 0 *
Sh

0101100
-197 0 -188 0 -183 0 +176 0 +173 0 -170 0 -168 0 *
So

0100000
+167 0 *
Ve
1e-07
25 61.6025403784439 12.5
0 0

0101101
*
Ve
1e-07
25 61.6025403784439 13.5
0 0

0101101
*
Ed
 1e-07 1 1 0
1  31 0 0 1
2  62 16 0 0 1
2  63 15 0 0 1
0

0101000
+165 0 -164 0 *
Ve
1e-07
-18.3012701892219 36.6025403784439 12.5
0 0

0101101
*
Ve
1e-07
-18.3012701892219 36.6025403784439 13.5
0 0

0101101
*
Ed
 1e-07 1 1 0
1  32 0 0 1
2  64 15 0 0 1
0

0101000
+162 0 -161 0 *
Ed
 1e-07 1 1 0
1  33 0 0 50
2  65 17 0 0 50
2  66 15 0 0 50
0

0101000
+165 0 -162 0 *
Ed
 1e-07 1 1 0
1  34 0 0 50
2  67 18 0 0 50
2  68 15 0 0 50
0

0101000
+164 0 -161 0 *
Wi

0101100
+163 0 -160 0 -159 0 +158 0 *
Fa
0  1e-07 15 0

0101000
+157 0 *
Ve
1e-07
-18.3012701892219 -13.3974596215561 12.5
0 0

0101101
*
Ve
1e-07
-18.3012701892219 -13.3974596215561 13.5
0 0

0101101
*
Ed
 1e-07 1 1 0
1  35 0 0 1
2  69 20 0 0 1
0

0101000
+155 0 -154 0 *
Ed
 1e-07 1 1 0
1  36 0 0 50
2  70 17 0 0 50
0

0101000
+162 0 -155 0 *
Ed
 1e-07 1 1 0
1  37 0 0 50
2  71 18 0 0 50
0

0101000
+161 0 -154 0 *
Wi

0101100
+160 0 -153 0 -152 0 +151 0 *
Fa
0  1e-07 19 0

0101000
+150 0 *
Ve
1e-07
25 -38.3974596215561 12.5
0 0

0101101
*
Ve
1e-07
25 -38.3974596215561 13.5
0 0

0101101
*
Ed
 1e-07 1 1 0
1  38 0 0 1
2  72 21 0 0 1
2  73 20 0 0 1
0

0101000
+148 0 -147 0 *
Ed
 1e-07 1 1 0
1  39 0 0 50
2  74 17 0 0 50
2  75 20 0 0 50
0

0101000
+155 0 -148 0 *
Ed
 1e-07 1 1 0
1  40 0 0 50
2  76 18 0 0 50
2  77 20 0 0 50
0

0101000
+154 0 -147 0 *
Wi

0101100
+153 0 -146 0 -145 0 +144 0 *
Fa
0  1e-07 20 0

0101000
+143 0 *
Ve
1e-07
68.3012701892219 -13.3974596215562 12.5
0 0

0101101
*
Ve
1e-07
68.3012701892219 -13.3974596215562 13.5
0 0

0101101
*
Ed
 1e-07 1 1 0
1  41 0 0 1
2  78 21 0 0 1
0

0101000
+141 0 -140 0 *
Ed
 1e-07 1 1 0
1  42 0 0 50
2  79 17 0 0 50
2  80 21 0 0 50
0

0101000
+148 0 -141 0 *
Ed
 1e-07 1 1 0
1  43 0 0 50
2  81 18 0 0 50
2  82 21 0 0 50
0

0101000
+147 0 -140 0 *
Wi

0101100
+146 0 -139 0 -138 0 +137 0 *
Fa
0  1e-07 21 0

0101000
+136 0 *
Ve
1e-07
68.301270189222 36.6025403784438 12.5
0 0

0101101
*
Ve
1e-07
68.301270189222 36.6025403784438 13.5
0 0

0101101
*
Ed
 1e-07 1 1 0
1  44 0 0 1
2  83 16 0 0 1
0

0101000
+134 0 -133 0 *
Ed
 1e-07 1 1 0
1  45 0 0 50
2  84 17 0 0 50
0

0101000
+141 0 -134 0 *
Ed
 1e-07 1 1 0
1  46 0 0 50
2  85 18 0 0 50
0

0101000
+140 0 -133 0 *
Wi

0101100
+139 0 -132 0 -131 0 +130 0 *
Fa
0  1e-07 22 0

0101000
+129 0 *
Ed
 1e-07 1 1 0
1  47 0 0 50
2  86 17 0 0 50
2  87 16 0 0 50
0

0101000
+134 0 -165 0 *
Ed
 1e-07 1 1 0
1  48 0 0 50
2  88 18 0 0 50
2  89 16 0 0 50
0

0101000
+133 0 -164 0 *
Wi

0101100
+132 0 -163 0 -127 0 +126 0 *
Fa
0  1e-07 16 0

0101000
+125 0 *
Wi

0101100
+159 0 +152 0 +145 0 +138 0 +131 0 +127 0 *
Fa
0  1e-07 17 0

0101000
+123 0 *
Wi

0101100
+158 0 +151 0 +144 0 +137 0 +130 0 +126 0 *
Fa
0  1e-07 18 0

0101000
+121 0 *
Sh

0101100
+156 0 +149 0 +142 0 +135 0 +128 0 +124 0 +122 0 -120 0 *
So

0100000
-119 0 *
Ve
1e-07
-25 -25 12.5
0 0

0101101
*
Ve
1e-07
-25 -25 14.1
0 0

0101101
*
Ed
 1e-07 1 1 0
1  49 0 0 1.6
2  90 24 0 0 1.6
2  91 23 0 0 1.6
0

0101000
+117 0 -116 0 *
Ve
1e-07
-68.3012701892219 -50 12.5
0 0

0101101
*
Ve
1e-07
-68.3012701892219 -50 14.1
0 0

0101101
*
Ed
 1e-07 1 1 0
1  50 0 0 1.6
2  92 23 0 0 1.6
2  93 25 0 0 1.6
0

0101000
+114 0 -113 0 *
Ed
 1e-07 1 1 0
1  51 0 0 50
2  94 26 0 0 50
2  95 23 0 0 50
0

0101000
+117 0 -114 0 *
Ed
 1e-07 1 1 0
1  52 0 0 50
2  96 27 0 0 50
2  97 23 0 0 50
0

0101000
+116 0 -113 0 *
Wi

0101100
+115 0 -112 0 -111 0 +110 0 *
Fa
0  1e-07 23 0

0101000
+109 0 *
Ve
1e-07
18.301270189222 -50 12.5
0 0

0101101
*
Ve
1e-07
18.301270189222 -50 14.1
0 0

0101101
*
Ed
 1e-07 1 1 0
1  53 0 0 1.6
2  98 24 0 0 1.6
2  99 28 0 0 1.6
0

0101000
+107 0 -106 0 *
Ed
 1e-07 1 1 0
1  54 0 0 50
2  100 26 0 0 50
2  101 24 0 0 50
0

0101000
+107 0 -117 0 *
Ed
 1e-07 1 1 0
1  55 0 0 50
2  102 27 0 0 50
2  103 24 0 0 50
0

0101000
+106 0 -116 0 *
Wi

0101100
+105 0 -115 0 -104 0 +103 0 *
Fa
0  1e-07 24 0

0101000
+102 0 *
Ve
1.50000014210855e-07
-68.3012701892219 -75 12.5
0 0

0101101
*
Ed
 1e-07 1 1 0
1  56 0 0 25
2  104 26 0 0 25
2  105 25 0 0 25
0

0101000
+114 0 -100 0 *
Ve
1.50000014210855e-07
-68.3012701892219 -75 14.1
0 0

0101101
*
Ed
 1.5e-07 1 1 0
1  57 0 1.5 3.1
2  106 25 0 1.5 3.1
2  107 7 0 1.5 3.1
0

0101000
+100 0 -98 0 *
Ed
 1e-07 1 1 0
1  58 0 0 25
2  108 27 0 0 25
2  109 25 0 0 25
0

0101000
+113 0 -98 0 *
Wi

0101100
-99 0 -97 0 +96 0 +112 0 *
Fa
0  1e-07 25 0

0101000
+95 0 *
Ve
1.50000014210855e-07
18.3012701892219 -75 12.5
0 0

0101101
*
Ed
 1e-07 1 1 0
1  59 0 25 50
2  110 26 0 25 50
2  111 28 0 25 50
0

0101000
+93 0 -107 0 *
Ed
 1.5e-07 1 1 0
1  60 0 -65.801270189222 20.8012701892219
2  112 26 0 -65.801270189222 20.8012701892219
2  113 7 0 -65.801270189222 20.8012701892219
0

0101000
+93 0 -100 0 *
Wi

0101100
+104 0 +92 0 -91 0 +99 0 +111 0 *
Fa
0  1e-07 26 0

0101000
+90 0 *
Ve
1.50000014210855e-07
18.3012701892219 -75 14.1
0 0

0101101
*
Ed
 1e-07 1 1 0
1  61 0 25 50
2  114 27 0 25 50
2  115 28 0 25 50
0

0101000
+88 0 -106 0 *
Ed
 1.5e-07 1 1 0
1  62 0 -65.801270189222 20.8012701892219
2  116 27 0 -65.801270189222 20.8012701892219
2  117 7 0 -65.801270189222 20.8012701892219
0

0101000
+88 0 -98 0 *
Wi

0101100
+103 0 +87 0 -86 0 +96 0 +110 0 *
Fa
0  1e-07 27 0

0101000
+85 0 *
Ed
 1.5e-07 1 1 0
1  63 0 -3.1 -1.5
2  118 28 0 -3.1 -1.5
2  119 7 0 -3.1 -1.5
0

0101000
+88 0 -93 0 *
Wi

0101100
-92 0 -105 0 +87 0 -83 0 *
Fa
0  1e-07 28 0

0101000
+82 0 *
Wi

0101100
+91 0 +83 0 -86 0 +97 0 *
Fa
0  1e-07 7 0

0101000
+80 0 *
Sh

0101100
-108 0 -101 0 -94 0 -89 0 +84 0 -81 0 -79 0 *
So

0100000
+78 0 *
Ve
1.50000014210855e-07
-68.3012701892219 75 12.5
0 0

0101101
*
Ve
1e-07
-68.3012701892219 73.2050807568877 12.5
0 0

0101101
*
Ed
 1e-07 1 1 0
1  64 0 48.2050807568877 50
2  120 30 0 48.2050807568877 50
2  121 29 0 48.2050807568877 50
0

0101000
+76 0 -75 0 *
Ve
1e-07
-68.3012701892219 73.2050807568877 12.9
0 0

0101101
*
Ed
 1e-07 1 1 0
1  65 0 0 0.4
2  122 31 0 0 0.4
2  123 29 0 0 0.4
0

0101000
+75 0 -73 0 *
Ve
1.50000014210855e-07
-68.3012701892219 75 12.9
0 0

0101101
*
Ed
 1e-07 1 1 0
1  66 0 48.2050807568877 50
2  124 32 0 48.2050807568877 50
2  125 29 0 48.2050807568877 50
0

0101000
+71 0 -73 0 *
Ed
 1.5e-07 1 1 0
1  67 0 1.5 1.9
2  126 29 0 1.5 1.9
2  127 12 0 1.5 1.9
0

0101000
+76 0 -71 0 *
Wi

0101100
-74 0 -72 0 +70 0 +69 0 *
Fa
0  1e-07 29 0

0101000
+68 0 *
Ve
1.50000031974423e-07
18.3012701892219 75 12.5
0 0

0101101
*
Ed
 1.5e-07 1 1 0
1  68 0 -65.801270189222 20.8012701892219
2  128 30 0 -65.801270189222 20.8012701892219
2  129 12 0 -65.801270189222 20.8012701892219
0

0101000
+66 0 -76 0 *
Ve
1e-07
18.3012701892219 73.2050807568877 12.5
0 0

0101101
*
Ed
 1e-07 1 1 0
1  69 0 0 1.7949192431123
2  130 30 0 0 1.7949192431123
2  131 33 0 0 1.7949192431123
0

0101000
+64 0 -66 0 *
Ve
1e-07
-25 48.2050807568877 12.5
0 0

0101101
*
Ed
 1e-07 1 1 0
1  70 0 0 50
2  132 30 0 0 50
2  133 34 0 0 50
0

0101000
+62 0 -64 0 *
Ed
 1e-07 1 1 0
1  71 0 0 50
2  134 30 0 0 50
2  135 31 0 0 50
0

0101000
+75 0 -62 0 *
Wi

0101100
+65 0 +63 0 +61 0 +60 0 +74 0 *
Fa
0  1e-07 30 0

0101000
+59 0 *
Ve
1e-07
-25 48.2050807568877 12.9
0 0

0101101
*
Ed
 1e-07 1 1 0
1  72 0 0 0.4
2  136 34 0 0 0.4
2  137 31 0 0 0.4
0

0101000
+62 0 -57 0 *
Ed
 1e-07 1 1 0
1  73 0 0 50
2  138 32 0 0 50
2  139 31 0 0 50
0

0101000
+73 0 -57 0 *
Wi

0101100
+72 0 -56 0 -60 0 +55 0 *
Fa
0  1e-07 31 0

0101000
+54 0 *
Ve
1.50000031974423e-07
18.3012701892219 75 12.9
0 0

0101101
*
Ed
 1.5e-07 1 1 0
1  74 0 -65.801270189222 20.8012701892219
2  140 32 0 -65.801270189222 20.8012701892219
2  141 12 0 -65.801270189222 20.8012701892219
0

0101000
+52 0 -71 0 *
Ve
1e-07
18.3012701892219 73.2050807568877 12.9
0 0

0101101
*
Ed
 1e-07 1 1 0
1  75 0 0 1.7949192431123
2  142 32 0 0 1.7949192431123
2  143 33 0 0 1.7949192431123
0

0101000
+50 0 -52 0 *
Ed
 1e-07 1 1 0
1  76 0 0 50
2  144 32 0 0 50
2  145 34 0 0 50
0

0101000
+57 0 -50 0 *
Wi

0101100
+51 0 +49 0 +48 0 +55 0 +70 0 *
Fa
0  1e-07 32 0

0101000
+47 0 *
Ed
 1.5e-07 1 1 0
1  77 0 -1.9 -1.5
2  146 33 0 -1.9 -1.5
2  147 12 0 -1.9 -1.5
0

0101000
+52 0 -66 0 *
Wi

0101100
+65 0 +45 0 -51 0 +69 0 *
Fa
0  1e-07 12 0

0101000
+44 0 *
Ed
 1e-07 1 1 0
1  78 0 0 0.4
2  148 34 0 0 0.4
2  149 33 0 0 0.4
0

0101000
+64 0 -50 0 *
Wi

0101100
-63 0 +45 0 +49 0 +42 0 *
Fa
0  1e-07 33 0

0101000
+41 0 *
Wi

0101100
+56 0 -42 0 -61 0 +48 0 *
Fa
0  1e-07 34 0

0101000
+39 0 *
Sh

0101100
-67 0 -58 0 -53 0 +46 0 +43 0 -40 0 -38 0 *
So

0100000
+37 0 *
Ve
1e-07
-31.698729810778 36.6025403784438 12.5
0 0

0101101
*
Ve
1e-07
-31.698729810778 36.6025403784438 14.3
0 0

0101101
*
Ed
 1e-07 1 1 0
1  79 0 0 1.8
2  150 35 0 0 1.8
0

0101000
+35 0 -34 0 *
Ve
1.50000007324107e-07
-75 61.6025403784439 12.5
0 0

0101101
*
Ve
1.50000007324107e-07
-75 61.6025403784439 14.3
0 0

0101101
*
Ed
 1e-07 1 1 0
1  80 0 0 1.8
2  151 35 0 0 1.8
2  152 36 0 0 1.8
0

0101000
+32 0 -31 0 *
Ed
 1e-07 1 1 0
1  81 0 0 50
2  153 37 0 0 50
2  154 35 0 0 50
0

0101000
+35 0 -32 0 *
Ed
 1e-07 1 1 0
1  82 0 0 50
2  155 38 0 0 50
2  156 35 0 0 50
0

0101000
+34 0 -31 0 *
Wi

0101100
+33 0 -30 0 -29 0 +28 0 *
Fa
0  1e-07 35 0

0101000
+27 0 *
Ve
1e-07
-31.6987298107781 -13.3974596215562 12.5
0 0

0101101
*
Ve
1e-07
-31.6987298107781 -13.3974596215562 14.3
0 0

0101101
*
Ed
 1e-07 1 1 0
1  83 0 0 1.8
2  157 40 0 0 1.8
0

0101000
+25 0 -24 0 *
Ed
 1e-07 1 1 0
1  84 0 0 50
2  158 37 0 0 50
0

0101000
+25 0 -35 0 *
Ed
 1e-07 1 1 0
1  85 0 0 50
2  159 38 0 0 50
0

0101000
+24 0 -34 0 *
Wi

0101100
+23 0 -33 0 -22 0 +21 0 *
Fa
0  1e-07 39 0

0101000
+20 0 *
Ve
1.50000014321447e-07
-75 -38.3974596215561 14.3
0 0

0101101
*
Ed
 1.5e-07 1 1 0
1  86 0 -90.8012701892219 9.19872981077808
2  160 38 0 -90.8012701892219 9.19872981077808
2  161 36 0 -90.8012701892219 9.19872981077808
0

0101000
+31 0 -18 0 *
Ve
1.50000014321447e-07
-75 -38.3974596215561 12.5
0 0

0101101
*
Ed
 1e-07 1 1 0
1  87 0 0 1.8
2  162 40 0 0 1.8
2  163 36 0 0 1.8
0

0101000
+16 0 -18 0 *
Ed
 1.5e-07 1 1 0
1  88 0 -90.8012701892219 9.19872981077808
2  164 37 0 -90.8012701892219 9.19872981077808
2  165 36 0 -90.8012701892219 9.19872981077808
0

0101000
+32 0 -16 0 *
Wi

0101100
-30 0 -17 0 +15 0 +14 0 *
Fa
0  1e-07 36 0

0101000
+13 0 *
Ed
 1e-07 1 1 0
1  89 0 0 50
2  166 37 0 0 50
2  167 40 0 0 50
0

0101000
+16 0 -25 0 *
Wi

0101100
+29 0 +22 0 +11 0 +14 0 *
Fa
0  1e-07 37 0

0101000
+10 0 *
Ed
 1e-07 1 1 0
1  90 0 0 50
2  168 38 0 0 50
2  169 40 0 0 50
0

0101000
+18 0 -24 0 *
Wi

0101100
+28 0 +21 0 +8 0 +17 0 *
Fa
0  1e-07 38 0

0101000
+7 0 *
Wi

0101100
+15 0 -23 0 -11 0 +8 0 *
Fa
0  1e-07 40 0

0101000
+5 0 *
Sh

0101100
-26 0 -19 0 +12 0 -9 0 +6 0 -4 0 *
So

0100000
+3 0 *
Co

1100000
+207 0 +166 0 +118 0 +77 0 +36 0 +2 0 *

+1 0 